<?xml version="1.0"?>
<svg xmlns="http://www.w3.org/2000/svg" height="512px" viewBox="0 0 512 512" width="512px"><g><path d="m497 201.808594c8.28125 0 15-6.707032 15-15 0-8.277344-6.71875-15-15-15h-34.578125v-38.027344h34.578125c8.28125 0 15-6.722656 15-15 0-8.28125-6.71875-15-15-15h-34.578125v-14.019531c0-22.152344-18.03125-40.183594-40.183594-40.183594h-14.019531v-34.578125c0-8.28125-6.71875-15-15-15-8.277344 0-15 6.71875-15 15v34.578125h-38.027344v-34.578125c0-8.28125-6.722656-15-15-15-8.292968 0-15 6.71875-15 15v34.578125h-39.191406v-34.578125c0-8.28125-6.71875-15-15-15s-15 6.71875-15 15v34.578125h-39.191406v-34.578125c0-8.28125-6.707032-15-15-15-8.277344 0-15 6.71875-15 15v34.578125h-38.027344v-34.578125c0-8.28125-6.722656-15-15-15-8.28125 0-15 6.71875-15 15v34.578125h-14.019531c-22.152344 0-40.183594 18.03125-40.183594 40.183594v14.019531h-34.578125c-8.28125 0-15 6.71875-15 15 0 8.277344 6.71875 15 15 15h34.578125v38.027344h-34.578125c-8.28125 0-15 6.722656-15 15 0 8.292968 6.71875 15 15 15h34.578125v39.191406h-34.578125c-8.28125 0-15 6.71875-15 15s6.71875 15 15 15h34.578125v39.191406h-34.578125c-8.28125 0-15 6.707032-15 15 0 8.277344 6.71875 15 15 15h34.578125v38.027344h-34.578125c-8.28125 0-15 6.722656-15 15 0 8.28125 6.71875 15 15 15h34.578125v14.019531c0 22.152344 18.03125 40.183594 40.183594 40.183594h14.019531v34.578125c0 8.28125 6.71875 15 15 15 8.277344 0 15-6.71875 15-15v-34.578125h38.027344v34.578125c0 8.28125 6.722656 15 15 15 8.292968 0 15-6.71875 15-15v-34.578125h39.191406v34.578125c0 8.28125 6.71875 15 15 15s15-6.71875 15-15v-34.578125h39.191406v34.578125c0 8.28125 6.707032 15 15 15 8.277344 0 15-6.71875 15-15v-34.578125h38.027344v34.578125c0 8.28125 6.722656 15 15 15 8.28125 0 15-6.71875 15-15v-34.578125h14.019531c22.152344 0 40.183594-18.03125 40.183594-40.183594v-14.019531h34.578125c8.28125 0 15-6.71875 15-15 0-8.277344-6.71875-15-15-15h-34.578125v-38.027344h34.578125c8.28125 0 15-6.722656 15-15 0-8.292968-6.71875-15-15-15h-34.578125v-39.191406h34.578125c8.28125 0 15-6.71875 15-15s-6.71875-15-15-15h-34.578125v-39.191406zm-148.738281 124.742187c0 11.96875-9.742188 21.710938-21.710938 21.710938h-141.101562c-11.96875 0-21.710938-9.742188-21.710938-21.710938v-141.101562c0-11.96875 9.742188-21.710938 21.710938-21.710938h141.101562c11.96875 0 21.710938 9.742188 21.710938 21.710938zm-154.523438-8.289062h124.523438v-124.523438h-124.523438zm0 0" data-original="#000000" class="active-path" data-old_color="#3880ff" fill="#3880ff"/></g> </svg>
