<?xml version="1.0"?>
<svg xmlns="http://www.w3.org/2000/svg" xmlns:xlink="http://www.w3.org/1999/xlink" version="1.1" id="Capa_1" x="0px" y="0px" viewBox="0 0 512 512" style="enable-background:new 0 0 512 512;" xml:space="preserve" width="512px" height="512px" class=""><g><g transform="translate(-1)">
	<g transform="translate(2 1)">
		<path style="fill:#A4C2F7" d="M101.451,7.533h307.2c14.138,0,25.6,11.462,25.6,25.6v443.733c0,14.138-11.462,25.6-25.6,25.6    h-307.2c-14.138,0-25.6-11.462-25.6-25.6V33.133C75.851,18.995,87.312,7.533,101.451,7.533z" data-original="#A4C2F7" class=""/>
		<path style="fill:#E3E7F2;" d="M101.451,7.533h281.6c14.138,0,25.6,11.462,25.6,25.6v443.733c0,14.138-11.462,25.6-25.6,25.6    h-281.6c-14.138,0-25.6-11.462-25.6-25.6V33.133C75.851,18.995,87.312,7.533,101.451,7.533z" data-original="#E3E7F2" class=""/>
		<path style="fill:#A4C2F7" d="M374.517,255c-0.009,6.792,2.685,13.309,7.488,18.112c4.803,4.803,11.32,7.497,18.112,7.488v128    l-59.733,59.733H169.717L109.984,408.6v-128c14.138,0,25.6-11.461,25.6-25.6c0-14.138-11.462-25.6-25.6-25.6v-128l59.733-59.733    h170.667l59.733,59.733v128c-6.792-0.009-13.309,2.685-18.112,7.488C377.203,241.691,374.508,248.208,374.517,255z" data-original="#A4C2F7" class=""/>
		<g>
			<path style="fill:#E3E7F2;" d="M348.917,255c-0.009,6.792,2.685,13.309,7.488,18.112c4.803,4.803,11.32,7.497,18.112,7.488v128     l-59.733,59.733H169.717L109.984,408.6v-128c14.138,0,25.6-11.461,25.6-25.6c0-14.138-11.462-25.6-25.6-25.6v-128l59.733-59.733     h145.067l59.733,59.733v128c-6.792-0.009-13.309,2.685-18.112,7.488C351.603,241.691,348.908,248.208,348.917,255z" data-original="#E3E7F2" class=""/>
			<circle style="fill:#E3E7F2;" cx="178.251" cy="383" r="34.133" data-original="#E3E7F2" class=""/>
			<path style="fill:#E3E7F2;" d="M186.784,75.8h136.533c4.713,0,8.533,3.821,8.533,8.533v25.6c0,4.713-3.82,8.533-8.533,8.533     H186.784c-4.713,0-8.533-3.821-8.533-8.533v-25.6C178.251,79.621,182.071,75.8,186.784,75.8z" data-original="#E3E7F2" class=""/>
			<path style="fill:#E3E7F2;" d="M331.851,161.133v187.733c-0.014,4.707-3.826,8.52-8.533,8.533h-63.061     c-3.377,0.009-6.679-1.002-9.472-2.901l-64.939-43.264c-4.758-3.139-7.614-8.465-7.595-14.165V161.133     c0.014-4.707,3.826-8.52,8.533-8.533h136.533C328.025,152.614,331.837,156.426,331.851,161.133z" data-original="#E3E7F2" class=""/>
		</g>
		<path style="fill:#FFFFFF;" d="M101.451,476.867V33.133c-0.009-6.792,2.685-13.309,7.488-18.112s11.32-7.497,18.112-7.488l-25.6,0    c-6.792-0.009-13.309,2.685-18.112,7.488c-4.803,4.803-7.497,11.32-7.488,18.112v443.733c-0.009,6.792,2.685,13.309,7.488,18.112    s11.32,7.497,18.112,7.488h25.6c-6.792,0.009-13.309-2.685-18.112-7.488C104.136,490.176,101.442,483.659,101.451,476.867z" data-original="#FFFFFF"/>
	</g>
	<g>
		<polygon style="fill:#FFFFFF;" points="86.384,34.133 86.384,145.067 86.384,477.867 69.317,477.867 69.317,145.067     69.317,34.133   " data-original="#FFFFFF"/>
		<g>
			<path style="fill:#3880FF" d="M69.317,477.867c0.02,18.843,15.29,34.113,34.133,34.133h307.2     c18.843-0.02,34.113-15.29,34.133-34.133V34.133C444.764,15.29,429.494,0.02,410.651,0h-307.2     C84.608,0.02,69.337,15.29,69.317,34.133v34.133c0,4.713,3.821,8.533,8.533,8.533s8.533-3.82,8.533-8.533V34.133     c0.011-9.421,7.645-17.056,17.067-17.067h307.2c9.421,0.011,17.056,7.645,17.067,17.067v443.733     c-0.011,9.421-7.645,17.056-17.067,17.067h-307.2c-9.421-0.011-17.056-7.645-17.067-17.067V136.533     c0-4.713-3.821-8.533-8.533-8.533s-8.533,3.821-8.533,8.533V477.867z" data-original="#428DFF" class="active-path" data-old_color="#3880ff"/>
			<path style="fill:#3880FF" d="M77.851,110.933c3.45-0.014,6.556-2.096,7.879-5.282c1.323-3.187,0.606-6.856-1.82-9.31     l-1.279-1.025c-0.476-0.324-0.993-0.583-1.538-0.771c-0.484-0.246-1.003-0.417-1.538-0.508c-0.563-0.096-1.133-0.153-1.704-0.171     c-2.259,0.031-4.423,0.915-6.059,2.475c-2.07,1.994-2.979,4.908-2.409,7.726c0.57,2.818,2.539,5.149,5.222,6.183     C75.631,110.688,76.734,110.92,77.851,110.933z" data-original="#428DFF" class="active-path" data-old_color="#3880ff"/>
			<path style="fill:#3880FF" d="M113.601,51.029c0.566-0.082,1.115-0.255,1.625-0.513c0.543-0.188,1.059-0.447,1.533-0.771     c0.449-0.313,0.878-0.654,1.284-1.021c3.3-3.365,3.3-8.752,0-12.117c-0.406-0.368-0.835-0.71-1.283-1.025     c-0.475-0.324-0.99-0.583-1.533-0.771c-0.51-0.258-1.059-0.43-1.625-0.509c-2.78-0.504-5.633,0.352-7.675,2.304     c-3.3,3.365-3.3,8.752,0,12.117c1.636,1.558,3.799,2.442,6.058,2.475C112.526,51.184,113.067,51.127,113.601,51.029z" data-original="#428DFF" class="active-path" data-old_color="#3880ff"/>
			<path style="fill:#3880FF" d="M403.734,51.029c0.566-0.082,1.115-0.255,1.625-0.513c0.543-0.188,1.059-0.447,1.533-0.771     c0.425-0.338,0.858-0.679,1.284-1.021c0.341-0.429,0.683-0.854,1.025-1.367c0.337-0.436,0.596-0.926,0.767-1.45     c0.26-0.508,0.432-1.056,0.508-1.621c0.103-0.535,0.162-1.077,0.175-1.621c-0.017-0.573-0.076-1.144-0.175-1.708     c-0.089-0.536-0.261-1.054-0.508-1.537c-0.189-0.542-0.446-1.057-0.767-1.533c-0.341-0.429-0.683-0.854-1.025-1.279     c-0.425-0.341-0.858-0.683-1.283-1.025c-0.475-0.324-0.99-0.583-1.533-0.771c-0.51-0.258-1.059-0.43-1.625-0.508     c-1.065-0.258-2.177-0.258-3.242,0c-0.563,0.079-1.11,0.25-1.617,0.508c-0.546,0.187-1.064,0.447-1.542,0.771l-1.275,1.025     c-1.574,1.625-2.461,3.796-2.475,6.059c-0.022,2.27,0.87,4.453,2.475,6.058c1.605,1.605,3.788,2.497,6.058,2.475     C402.66,51.184,403.2,51.127,403.734,51.029z" data-original="#428DFF" class="active-path" data-old_color="#3880ff"/>
			<path style="fill:#3880FF" d="M408.176,463.275c-3.421-3.158-8.695-3.158-12.117,0c-0.772,0.814-1.38,1.769-1.792,2.813     c-0.438,1.027-0.67,2.13-0.683,3.246c0.014,2.263,0.9,4.433,2.475,6.059c0.425,0.341,0.85,0.683,1.275,1.021     c0.477,0.324,0.996,0.583,1.542,0.771c0.507,0.257,1.054,0.431,1.617,0.513c0.537,0.098,1.08,0.155,1.625,0.171     c0.542-0.016,1.083-0.073,1.617-0.171c0.566-0.082,1.115-0.255,1.625-0.512c0.543-0.188,1.059-0.447,1.533-0.771     c0.425-0.337,0.858-0.679,1.283-1.021c0.341-0.429,0.683-0.854,1.025-1.279c0.321-0.477,0.579-0.994,0.767-1.538     c0.247-0.483,0.419-1.002,0.508-1.537c0.104-0.563,0.162-1.132,0.175-1.704c-0.013-1.116-0.245-2.219-0.683-3.246     c-0.172-0.523-0.431-1.013-0.767-1.45C408.859,464.125,408.517,463.7,408.176,463.275z" data-original="#428DFF" class="active-path" data-old_color="#3880ff"/>
			<path style="fill:#3880FF" d="M105.925,475.392c0.803,0.788,1.762,1.399,2.817,1.792c1.026,0.437,2.127,0.669,3.242,0.683     c2.262-0.019,4.43-0.905,6.059-2.475c3.3-3.365,3.3-8.752,0-12.117c-0.425-0.341-0.858-0.683-1.283-1.025     c-0.475-0.324-0.99-0.583-1.533-0.771c-0.51-0.258-1.059-0.43-1.625-0.508c-2.78-0.504-5.633,0.352-7.675,2.304     C102.626,466.64,102.626,472.027,105.925,475.392L105.925,475.392z" data-original="#428DFF" class="active-path" data-old_color="#3880ff"/>
			<path style="fill:#3880FF" d="M111.984,273.067c-2.263-0.001-4.434,0.898-6.035,2.499c-1.6,1.6-2.499,3.771-2.499,6.035v128     c0.001,2.263,0.9,4.433,2.5,6.033l59.733,59.733c1.6,1.601,3.77,2.5,6.033,2.5h170.667c2.263,0,4.434-0.899,6.033-2.5     l59.733-59.733c1.6-1.6,2.5-3.77,2.5-6.033v-128c0.001-2.263-0.898-4.434-2.499-6.035c-1.6-1.6-3.771-2.499-6.035-2.499     c-9.426,0-17.067-7.641-17.067-17.067c0-9.426,7.641-17.067,17.067-17.067c2.263,0.001,4.434-0.898,6.035-2.499     c1.6-1.6,2.499-3.771,2.499-6.035v-128c-0.001-2.263-0.9-4.433-2.5-6.033l-59.733-59.733c-1.6-1.601-3.77-2.5-6.033-2.5H171.717     c-2.263,0-4.434,0.899-6.033,2.5l-59.733,59.733c-1.6,1.6-2.5,3.77-2.5,6.033v128c-0.001,2.263,0.898,4.434,2.499,6.035     c1.6,1.6,3.771,2.499,6.035,2.499c9.426,0,17.067,7.641,17.067,17.067C129.051,265.426,121.41,273.067,111.984,273.067z      M120.517,222.946V105.933L175.251,51.2h163.6l54.733,54.733v117.012c-15.071,3.894-25.6,17.488-25.6,33.054     s10.529,29.161,25.6,33.054v117.013L338.851,460.8h-163.6l-54.733-54.733V289.054c15.071-3.894,25.6-17.488,25.6-33.054     S135.588,226.839,120.517,222.946z" data-original="#428DFF" class="active-path" data-old_color="#3880ff"/>
			<path style="fill:#3880FF" d="M180.251,426.667c23.564,0,42.667-19.103,42.667-42.667c0-23.564-19.103-42.667-42.667-42.667     S137.584,360.436,137.584,384C137.612,407.553,156.698,426.639,180.251,426.667z M180.251,358.4c14.138,0,25.6,11.462,25.6,25.6     c0,14.138-11.462,25.6-25.6,25.6s-25.6-11.462-25.6-25.6C154.666,369.868,166.119,358.415,180.251,358.4z" data-original="#428DFF" class="active-path" data-old_color="#3880ff"/>
			<path style="fill:#3880FF" d="M172.401,387.242c0.184,0.545,0.442,1.062,0.767,1.538c0.317,0.446,0.659,0.873,1.025,1.28     c3.365,3.3,8.752,3.3,12.117,0c0.366-0.407,0.708-0.834,1.025-1.279c0.321-0.477,0.579-0.994,0.767-1.538     c0.247-0.483,0.419-1.002,0.508-1.537c0.104-0.563,0.162-1.133,0.175-1.705c0-4.713-3.82-8.533-8.533-8.533     s-8.533,3.821-8.533,8.533c0.018,0.571,0.074,1.14,0.167,1.704C171.98,386.239,172.154,386.757,172.401,387.242z" data-original="#428DFF" class="active-path" data-old_color="#3880ff"/>
			<path style="fill:#3880FF" d="M188.784,128h136.533c9.421-0.011,17.056-7.645,17.067-17.067v-25.6     c-0.011-9.421-7.645-17.056-17.067-17.067H188.784c-9.421,0.011-17.056,7.645-17.067,17.067v25.6     C171.728,120.355,179.363,127.989,188.784,128z M188.784,85.333h136.533l0.009,25.6h-25.609c0-4.713-3.82-8.533-8.533-8.533     s-8.533,3.821-8.533,8.533h-17.067c0-4.713-3.82-8.533-8.533-8.533s-8.533,3.821-8.533,8.533h-17.067     c0-4.713-3.821-8.533-8.533-8.533c-4.713,0-8.533,3.821-8.533,8.533h-25.6V85.333z" data-original="#428DFF" class="active-path" data-old_color="#3880ff"/>
			<path style="fill:#3880FF" d="M183.117,319.367l64.892,43.263c4.204,2.813,9.15,4.311,14.208,4.304h63.1     c9.421-0.011,17.056-7.645,17.067-17.067V162.133c-0.011-9.421-7.645-17.056-17.067-17.067H188.784     c-9.421,0.011-17.056,7.645-17.067,17.067v135.933C171.707,306.629,175.987,314.627,183.117,319.367z M188.784,162.133     l136.533,0.025v153.575h-51.2c-4.713,0-8.533,3.821-8.533,8.533s3.821,8.533,8.533,8.533h51.2v17.067h-63.1     c-1.685,0.001-3.332-0.498-4.733-1.434l-64.9-43.267c-2.377-1.58-3.804-4.246-3.8-7.1V162.133z" data-original="#428DFF" class="active-path" data-old_color="#3880ff"/>
			<path style="fill:#3880FF" d="M222.917,213.333c2.263,0.001,4.434-0.898,6.035-2.499c1.6-1.6,2.499-3.771,2.499-6.035v-17.067     c0-4.713-3.821-8.533-8.533-8.533c-4.713,0-8.533,3.821-8.533,8.533V204.8c-0.001,2.263,0.898,4.434,2.499,6.035     S220.654,213.334,222.917,213.333z" data-original="#428DFF" class="active-path" data-old_color="#3880ff"/>
			<path style="fill:#3880FF" d="M257.051,213.333c2.263,0.001,4.434-0.898,6.035-2.499s2.499-3.771,2.499-6.035v-17.067     c0-4.713-3.82-8.533-8.533-8.533s-8.533,3.821-8.533,8.533V204.8c-0.001,2.263,0.898,4.434,2.499,6.035     C252.617,212.435,254.787,213.334,257.051,213.333z" data-original="#428DFF" class="active-path" data-old_color="#3880ff"/>
			<path style="fill:#3880FF" d="M291.184,213.333c2.263,0.001,4.434-0.898,6.035-2.499s2.499-3.771,2.499-6.035v-17.067     c0-4.713-3.82-8.533-8.533-8.533s-8.533,3.821-8.533,8.533V204.8c-0.001,2.263,0.898,4.434,2.499,6.035     S288.921,213.334,291.184,213.333z" data-original="#428DFF" class="active-path" data-old_color="#3880ff"/>
		</g>
	</g>
</g></g> </svg>
